<mxfile host="app.diagrams.net" agent="Mozilla/5.0 (Macintosh; Intel Mac OS X 10_15_7) AppleWebKit/537.36 (KHTML, like Gecko) Chrome/129.0.0.0 Safari/537.36" version="24.7.7">
  <diagram name="第 1 页" id="3OlnybCZuQFbsvdLqa09">
    <mxGraphModel dx="2074" dy="1121" grid="1" gridSize="10" guides="1" tooltips="1" connect="1" arrows="1" fold="1" page="1" pageScale="1" pageWidth="3300" pageHeight="4681" math="0" shadow="0">
      <root>
        <mxCell id="0" />
        <mxCell id="1" parent="0" />
        <mxCell id="zS4iTFZCfX0krXfUyPuB-29" style="edgeStyle=orthogonalEdgeStyle;rounded=1;orthogonalLoop=1;jettySize=auto;html=1;entryX=0;entryY=0.5;entryDx=0;entryDy=0;labelBackgroundColor=none;strokeColor=#A8201A;fontColor=default;" edge="1" parent="1" source="zS4iTFZCfX0krXfUyPuB-2" target="zS4iTFZCfX0krXfUyPuB-3">
          <mxGeometry relative="1" as="geometry" />
        </mxCell>
        <mxCell id="zS4iTFZCfX0krXfUyPuB-2" value="Actor" style="shape=umlActor;verticalLabelPosition=bottom;verticalAlign=top;html=1;outlineConnect=0;rounded=1;labelBackgroundColor=none;fillColor=#FAE5C7;strokeColor=#0F8B8D;fontColor=#143642;" vertex="1" parent="1">
          <mxGeometry x="220" y="370" width="30" height="60" as="geometry" />
        </mxCell>
        <mxCell id="zS4iTFZCfX0krXfUyPuB-3" value="&lt;span style=&quot;color: rgb(33, 33, 33); font-family: Inter, system-ui, -apple-system, &amp;quot;system-ui&amp;quot;, &amp;quot;Segoe UI&amp;quot;, Roboto, Oxygen, Ubuntu, Cantarell, &amp;quot;Fira Sans&amp;quot;, &amp;quot;Droid Sans&amp;quot;, Helvetica, Arial, sans-serif; text-align: left; white-space-collapse: preserve; background-color: rgb(255, 255, 255);&quot;&gt;lookup.api.bsb.baidu.com&lt;/span&gt;" style="rounded=1;whiteSpace=wrap;html=1;labelBackgroundColor=none;fillColor=#FAE5C7;strokeColor=#0F8B8D;fontColor=#143642;" vertex="1" parent="1">
          <mxGeometry x="320" y="370" width="170" height="60" as="geometry" />
        </mxCell>
        <mxCell id="zS4iTFZCfX0krXfUyPuB-12" value="华中" style="swimlane;whiteSpace=wrap;html=1;align=left;rounded=1;labelBackgroundColor=none;fillColor=#FAE5C7;strokeColor=#0F8B8D;fontColor=#143642;" vertex="1" parent="1">
          <mxGeometry x="900" y="305" width="180" height="190" as="geometry" />
        </mxCell>
        <mxCell id="zS4iTFZCfX0krXfUyPuB-13" value="url_nginx" style="rounded=1;whiteSpace=wrap;html=1;labelBackgroundColor=none;fillColor=#FAE5C7;strokeColor=#0F8B8D;fontColor=#143642;" vertex="1" parent="zS4iTFZCfX0krXfUyPuB-12">
          <mxGeometry x="10" y="40" width="160" height="60" as="geometry" />
        </mxCell>
        <mxCell id="zS4iTFZCfX0krXfUyPuB-14" value="url_nginx" style="rounded=1;whiteSpace=wrap;html=1;labelBackgroundColor=none;fillColor=#FAE5C7;strokeColor=#0F8B8D;fontColor=#143642;" vertex="1" parent="zS4iTFZCfX0krXfUyPuB-12">
          <mxGeometry x="10" y="120" width="160" height="60" as="geometry" />
        </mxCell>
        <mxCell id="zS4iTFZCfX0krXfUyPuB-18" value="华南" style="swimlane;whiteSpace=wrap;html=1;align=left;horizontal=1;rounded=1;labelBackgroundColor=none;fillColor=#FAE5C7;strokeColor=#0F8B8D;fontColor=#143642;" vertex="1" parent="1">
          <mxGeometry x="900" y="530" width="180" height="190" as="geometry" />
        </mxCell>
        <mxCell id="zS4iTFZCfX0krXfUyPuB-19" value="url_nginx" style="rounded=1;whiteSpace=wrap;html=1;labelBackgroundColor=none;fillColor=#FAE5C7;strokeColor=#0F8B8D;fontColor=#143642;" vertex="1" parent="zS4iTFZCfX0krXfUyPuB-18">
          <mxGeometry x="10" y="40" width="160" height="60" as="geometry" />
        </mxCell>
        <mxCell id="zS4iTFZCfX0krXfUyPuB-20" value="url_nginx" style="rounded=1;whiteSpace=wrap;html=1;labelBackgroundColor=none;fillColor=#FAE5C7;strokeColor=#0F8B8D;fontColor=#143642;" vertex="1" parent="zS4iTFZCfX0krXfUyPuB-18">
          <mxGeometry x="10" y="120" width="160" height="60" as="geometry" />
        </mxCell>
        <mxCell id="zS4iTFZCfX0krXfUyPuB-21" value="华北" style="swimlane;whiteSpace=wrap;html=1;align=left;rounded=1;labelBackgroundColor=none;fillColor=#FAE5C7;strokeColor=#0F8B8D;fontColor=#143642;" vertex="1" parent="1">
          <mxGeometry x="900" y="85" width="180" height="190" as="geometry">
            <mxRectangle x="640" y="90" width="130" height="30" as="alternateBounds" />
          </mxGeometry>
        </mxCell>
        <mxCell id="zS4iTFZCfX0krXfUyPuB-22" value="url_nginx" style="rounded=1;whiteSpace=wrap;html=1;labelBackgroundColor=none;fillColor=#FAE5C7;strokeColor=#0F8B8D;fontColor=#143642;" vertex="1" parent="zS4iTFZCfX0krXfUyPuB-21">
          <mxGeometry x="10" y="40" width="160" height="60" as="geometry" />
        </mxCell>
        <mxCell id="zS4iTFZCfX0krXfUyPuB-23" value="url_nginx" style="rounded=1;whiteSpace=wrap;html=1;labelBackgroundColor=none;fillColor=#FAE5C7;strokeColor=#0F8B8D;fontColor=#143642;" vertex="1" parent="zS4iTFZCfX0krXfUyPuB-21">
          <mxGeometry x="10" y="120" width="160" height="60" as="geometry" />
        </mxCell>
        <mxCell id="zS4iTFZCfX0krXfUyPuB-24" value="" style="endArrow=classic;html=1;rounded=1;exitX=1;exitY=0.5;exitDx=0;exitDy=0;entryX=0;entryY=0.5;entryDx=0;entryDy=0;labelBackgroundColor=none;strokeColor=#A8201A;fontColor=default;" edge="1" parent="1" source="zS4iTFZCfX0krXfUyPuB-3" target="zS4iTFZCfX0krXfUyPuB-50">
          <mxGeometry width="50" height="50" relative="1" as="geometry">
            <mxPoint x="490" y="490" as="sourcePoint" />
            <mxPoint x="610" y="170" as="targetPoint" />
          </mxGeometry>
        </mxCell>
        <mxCell id="zS4iTFZCfX0krXfUyPuB-31" value="通过 ip 代理" style="edgeLabel;html=1;align=center;verticalAlign=middle;resizable=0;points=[];rounded=1;labelBackgroundColor=none;fontColor=#143642;" vertex="1" connectable="0" parent="zS4iTFZCfX0krXfUyPuB-24">
          <mxGeometry x="-0.0596" y="1" relative="1" as="geometry">
            <mxPoint x="5" y="-26" as="offset" />
          </mxGeometry>
        </mxCell>
        <mxCell id="zS4iTFZCfX0krXfUyPuB-25" value="" style="endArrow=classic;html=1;rounded=1;entryX=0;entryY=0.5;entryDx=0;entryDy=0;exitX=1;exitY=0.5;exitDx=0;exitDy=0;labelBackgroundColor=none;strokeColor=#A8201A;fontColor=default;" edge="1" parent="1" source="zS4iTFZCfX0krXfUyPuB-3" target="zS4iTFZCfX0krXfUyPuB-52">
          <mxGeometry width="50" height="50" relative="1" as="geometry">
            <mxPoint x="480" y="410" as="sourcePoint" />
            <mxPoint x="890" y="400" as="targetPoint" />
          </mxGeometry>
        </mxCell>
        <mxCell id="zS4iTFZCfX0krXfUyPuB-32" value="通过 ip 代理" style="edgeLabel;html=1;align=center;verticalAlign=middle;resizable=0;points=[];rounded=1;labelBackgroundColor=none;fontColor=#143642;" vertex="1" connectable="0" parent="zS4iTFZCfX0krXfUyPuB-25">
          <mxGeometry x="-0.05" y="2" relative="1" as="geometry">
            <mxPoint as="offset" />
          </mxGeometry>
        </mxCell>
        <mxCell id="zS4iTFZCfX0krXfUyPuB-26" value="" style="endArrow=classic;html=1;rounded=1;entryX=0;entryY=0.5;entryDx=0;entryDy=0;exitX=1;exitY=0.5;exitDx=0;exitDy=0;labelBackgroundColor=none;strokeColor=#A8201A;fontColor=default;" edge="1" parent="1" source="zS4iTFZCfX0krXfUyPuB-3" target="zS4iTFZCfX0krXfUyPuB-53">
          <mxGeometry width="50" height="50" relative="1" as="geometry">
            <mxPoint x="490" y="380" as="sourcePoint" />
            <mxPoint x="660" y="205" as="targetPoint" />
          </mxGeometry>
        </mxCell>
        <mxCell id="zS4iTFZCfX0krXfUyPuB-33" value="通过 ip 代理" style="edgeLabel;html=1;align=center;verticalAlign=middle;resizable=0;points=[];rounded=1;labelBackgroundColor=none;fontColor=#143642;" vertex="1" connectable="0" parent="zS4iTFZCfX0krXfUyPuB-26">
          <mxGeometry x="0.0894" y="2" relative="1" as="geometry">
            <mxPoint as="offset" />
          </mxGeometry>
        </mxCell>
        <mxCell id="zS4iTFZCfX0krXfUyPuB-35" value="华北&amp;nbsp;" style="swimlane;whiteSpace=wrap;html=1;align=left;rounded=1;labelBackgroundColor=none;fillColor=#FAE5C7;strokeColor=#0F8B8D;fontColor=#143642;" vertex="1" parent="1">
          <mxGeometry x="1410" y="82.5" width="200" height="195" as="geometry">
            <mxRectangle x="640" y="90" width="130" height="30" as="alternateBounds" />
          </mxGeometry>
        </mxCell>
        <mxCell id="zS4iTFZCfX0krXfUyPuB-36" value="go_server" style="rounded=1;whiteSpace=wrap;html=1;labelBackgroundColor=none;fillColor=#FAE5C7;strokeColor=#0F8B8D;fontColor=#143642;" vertex="1" parent="zS4iTFZCfX0krXfUyPuB-35">
          <mxGeometry x="30" y="40" width="140" height="40" as="geometry" />
        </mxCell>
        <mxCell id="zS4iTFZCfX0krXfUyPuB-37" value="go_server" style="rounded=1;whiteSpace=wrap;html=1;labelBackgroundColor=none;fillColor=#FAE5C7;strokeColor=#0F8B8D;fontColor=#143642;" vertex="1" parent="zS4iTFZCfX0krXfUyPuB-35">
          <mxGeometry x="30" y="95" width="140" height="40" as="geometry" />
        </mxCell>
        <mxCell id="zS4iTFZCfX0krXfUyPuB-69" value="&lt;font style=&quot;font-size: 29px;&quot;&gt;......&lt;/font&gt;" style="text;html=1;align=center;verticalAlign=middle;resizable=0;points=[];autosize=1;strokeColor=none;fillColor=none;fontColor=#143642;" vertex="1" parent="zS4iTFZCfX0krXfUyPuB-35">
          <mxGeometry x="60" y="135" width="70" height="50" as="geometry" />
        </mxCell>
        <mxCell id="zS4iTFZCfX0krXfUyPuB-51" style="edgeStyle=orthogonalEdgeStyle;rounded=1;orthogonalLoop=1;jettySize=auto;html=1;exitX=1;exitY=0.5;exitDx=0;exitDy=0;entryX=0;entryY=0.5;entryDx=0;entryDy=0;labelBackgroundColor=none;strokeColor=#A8201A;fontColor=default;" edge="1" parent="1" source="zS4iTFZCfX0krXfUyPuB-50" target="zS4iTFZCfX0krXfUyPuB-21">
          <mxGeometry relative="1" as="geometry" />
        </mxCell>
        <mxCell id="zS4iTFZCfX0krXfUyPuB-50" value="url_nginx proxy vip: 1.1.1.1" style="rounded=1;whiteSpace=wrap;html=1;labelBackgroundColor=none;fillColor=#FAE5C7;strokeColor=#0F8B8D;fontColor=#143642;" vertex="1" parent="1">
          <mxGeometry x="650" y="150" width="130" height="60" as="geometry" />
        </mxCell>
        <mxCell id="zS4iTFZCfX0krXfUyPuB-55" style="edgeStyle=orthogonalEdgeStyle;rounded=1;orthogonalLoop=1;jettySize=auto;html=1;exitX=1;exitY=0.5;exitDx=0;exitDy=0;entryX=0;entryY=0.5;entryDx=0;entryDy=0;labelBackgroundColor=none;strokeColor=#A8201A;fontColor=default;" edge="1" parent="1" source="zS4iTFZCfX0krXfUyPuB-52" target="zS4iTFZCfX0krXfUyPuB-12">
          <mxGeometry relative="1" as="geometry" />
        </mxCell>
        <mxCell id="zS4iTFZCfX0krXfUyPuB-52" value="url_nginx proxy vip: 2.2.2.2" style="rounded=1;whiteSpace=wrap;html=1;labelBackgroundColor=none;fillColor=#FAE5C7;strokeColor=#0F8B8D;fontColor=#143642;" vertex="1" parent="1">
          <mxGeometry x="650" y="370" width="130" height="60" as="geometry" />
        </mxCell>
        <mxCell id="zS4iTFZCfX0krXfUyPuB-56" style="edgeStyle=orthogonalEdgeStyle;rounded=1;orthogonalLoop=1;jettySize=auto;html=1;exitX=1;exitY=0.5;exitDx=0;exitDy=0;entryX=0;entryY=0.5;entryDx=0;entryDy=0;labelBackgroundColor=none;strokeColor=#A8201A;fontColor=default;" edge="1" parent="1" source="zS4iTFZCfX0krXfUyPuB-53" target="zS4iTFZCfX0krXfUyPuB-18">
          <mxGeometry relative="1" as="geometry" />
        </mxCell>
        <mxCell id="zS4iTFZCfX0krXfUyPuB-53" value="url_nginx proxy vip: 3.3.3.3" style="rounded=1;whiteSpace=wrap;html=1;labelBackgroundColor=none;fillColor=#FAE5C7;strokeColor=#0F8B8D;fontColor=#143642;" vertex="1" parent="1">
          <mxGeometry x="645" y="595" width="140" height="60" as="geometry" />
        </mxCell>
        <mxCell id="zS4iTFZCfX0krXfUyPuB-57" value="go_server proxy vip: 4.4.4.4" style="rounded=1;whiteSpace=wrap;html=1;labelBackgroundColor=none;fillColor=#FAE5C7;strokeColor=#0F8B8D;fontColor=#143642;" vertex="1" parent="1">
          <mxGeometry x="1190" y="150" width="130" height="60" as="geometry" />
        </mxCell>
        <mxCell id="zS4iTFZCfX0krXfUyPuB-58" value="go_server proxy vip: 5.5.5.5" style="rounded=1;whiteSpace=wrap;html=1;labelBackgroundColor=none;fillColor=#FAE5C7;strokeColor=#0F8B8D;fontColor=#143642;" vertex="1" parent="1">
          <mxGeometry x="1190" y="370" width="130" height="60" as="geometry" />
        </mxCell>
        <mxCell id="zS4iTFZCfX0krXfUyPuB-59" value="go_server proxy vip: 6.6.6.6" style="rounded=1;whiteSpace=wrap;html=1;labelBackgroundColor=none;fillColor=#FAE5C7;strokeColor=#0F8B8D;fontColor=#143642;" vertex="1" parent="1">
          <mxGeometry x="1190" y="595" width="130" height="60" as="geometry" />
        </mxCell>
        <mxCell id="zS4iTFZCfX0krXfUyPuB-63" value="" style="endArrow=classic;html=1;rounded=0;strokeColor=#A8201A;fontColor=#143642;fillColor=#FAE5C7;exitX=1;exitY=0.5;exitDx=0;exitDy=0;entryX=0;entryY=0.5;entryDx=0;entryDy=0;" edge="1" parent="1" source="zS4iTFZCfX0krXfUyPuB-21" target="zS4iTFZCfX0krXfUyPuB-57">
          <mxGeometry width="50" height="50" relative="1" as="geometry">
            <mxPoint x="1230" y="80" as="sourcePoint" />
            <mxPoint x="1280" y="30" as="targetPoint" />
          </mxGeometry>
        </mxCell>
        <mxCell id="zS4iTFZCfX0krXfUyPuB-64" value="" style="endArrow=classic;html=1;rounded=0;strokeColor=#A8201A;fontColor=#143642;fillColor=#FAE5C7;exitX=1;exitY=0.5;exitDx=0;exitDy=0;entryX=0;entryY=0.5;entryDx=0;entryDy=0;" edge="1" parent="1" source="zS4iTFZCfX0krXfUyPuB-12" target="zS4iTFZCfX0krXfUyPuB-58">
          <mxGeometry width="50" height="50" relative="1" as="geometry">
            <mxPoint x="1090" y="190" as="sourcePoint" />
            <mxPoint x="1200" y="190" as="targetPoint" />
          </mxGeometry>
        </mxCell>
        <mxCell id="zS4iTFZCfX0krXfUyPuB-65" value="" style="endArrow=classic;html=1;rounded=0;strokeColor=#A8201A;fontColor=#143642;fillColor=#FAE5C7;exitX=1;exitY=0.5;exitDx=0;exitDy=0;entryX=0;entryY=0.5;entryDx=0;entryDy=0;" edge="1" parent="1" source="zS4iTFZCfX0krXfUyPuB-18" target="zS4iTFZCfX0krXfUyPuB-59">
          <mxGeometry width="50" height="50" relative="1" as="geometry">
            <mxPoint x="1100" y="200" as="sourcePoint" />
            <mxPoint x="1210" y="200" as="targetPoint" />
          </mxGeometry>
        </mxCell>
        <mxCell id="zS4iTFZCfX0krXfUyPuB-66" value="" style="endArrow=classic;html=1;rounded=0;strokeColor=#A8201A;fontColor=#143642;fillColor=#FAE5C7;exitX=1;exitY=0.5;exitDx=0;exitDy=0;entryX=0;entryY=0.5;entryDx=0;entryDy=0;" edge="1" parent="1" source="zS4iTFZCfX0krXfUyPuB-57" target="zS4iTFZCfX0krXfUyPuB-35">
          <mxGeometry width="50" height="50" relative="1" as="geometry">
            <mxPoint x="1330" y="80" as="sourcePoint" />
            <mxPoint x="1380" y="30" as="targetPoint" />
          </mxGeometry>
        </mxCell>
        <mxCell id="zS4iTFZCfX0krXfUyPuB-67" value="" style="endArrow=classic;html=1;rounded=0;strokeColor=#A8201A;fontColor=#143642;fillColor=#FAE5C7;exitX=1;exitY=0.5;exitDx=0;exitDy=0;entryX=0;entryY=0.5;entryDx=0;entryDy=0;" edge="1" parent="1" source="zS4iTFZCfX0krXfUyPuB-58" target="zS4iTFZCfX0krXfUyPuB-70">
          <mxGeometry width="50" height="50" relative="1" as="geometry">
            <mxPoint x="1220" y="290" as="sourcePoint" />
            <mxPoint x="1460" y="400" as="targetPoint" />
          </mxGeometry>
        </mxCell>
        <mxCell id="zS4iTFZCfX0krXfUyPuB-68" value="" style="endArrow=classic;html=1;rounded=0;strokeColor=#A8201A;fontColor=#143642;fillColor=#FAE5C7;exitX=1;exitY=0.5;exitDx=0;exitDy=0;entryX=0;entryY=0.5;entryDx=0;entryDy=0;" edge="1" parent="1" source="zS4iTFZCfX0krXfUyPuB-59" target="zS4iTFZCfX0krXfUyPuB-74">
          <mxGeometry width="50" height="50" relative="1" as="geometry">
            <mxPoint x="1270" y="720" as="sourcePoint" />
            <mxPoint x="1460" y="625" as="targetPoint" />
          </mxGeometry>
        </mxCell>
        <mxCell id="zS4iTFZCfX0krXfUyPuB-70" value="华中" style="swimlane;whiteSpace=wrap;html=1;align=left;rounded=1;labelBackgroundColor=none;fillColor=#FAE5C7;strokeColor=#0F8B8D;fontColor=#143642;" vertex="1" parent="1">
          <mxGeometry x="1410" y="302.5" width="200" height="195" as="geometry">
            <mxRectangle x="640" y="90" width="130" height="30" as="alternateBounds" />
          </mxGeometry>
        </mxCell>
        <mxCell id="zS4iTFZCfX0krXfUyPuB-71" value="go_server" style="rounded=1;whiteSpace=wrap;html=1;labelBackgroundColor=none;fillColor=#FAE5C7;strokeColor=#0F8B8D;fontColor=#143642;" vertex="1" parent="zS4iTFZCfX0krXfUyPuB-70">
          <mxGeometry x="30" y="40" width="140" height="40" as="geometry" />
        </mxCell>
        <mxCell id="zS4iTFZCfX0krXfUyPuB-72" value="go_server" style="rounded=1;whiteSpace=wrap;html=1;labelBackgroundColor=none;fillColor=#FAE5C7;strokeColor=#0F8B8D;fontColor=#143642;" vertex="1" parent="zS4iTFZCfX0krXfUyPuB-70">
          <mxGeometry x="30" y="95" width="140" height="40" as="geometry" />
        </mxCell>
        <mxCell id="zS4iTFZCfX0krXfUyPuB-73" value="&lt;font style=&quot;font-size: 29px;&quot;&gt;......&lt;/font&gt;" style="text;html=1;align=center;verticalAlign=middle;resizable=0;points=[];autosize=1;strokeColor=none;fillColor=none;fontColor=#143642;" vertex="1" parent="zS4iTFZCfX0krXfUyPuB-70">
          <mxGeometry x="60" y="135" width="70" height="50" as="geometry" />
        </mxCell>
        <mxCell id="zS4iTFZCfX0krXfUyPuB-74" value="华南" style="swimlane;whiteSpace=wrap;html=1;align=left;rounded=1;labelBackgroundColor=none;fillColor=#FAE5C7;strokeColor=#0F8B8D;fontColor=#143642;" vertex="1" parent="1">
          <mxGeometry x="1410" y="527.5" width="200" height="195" as="geometry">
            <mxRectangle x="640" y="90" width="130" height="30" as="alternateBounds" />
          </mxGeometry>
        </mxCell>
        <mxCell id="zS4iTFZCfX0krXfUyPuB-75" value="go_server" style="rounded=1;whiteSpace=wrap;html=1;labelBackgroundColor=none;fillColor=#FAE5C7;strokeColor=#0F8B8D;fontColor=#143642;" vertex="1" parent="zS4iTFZCfX0krXfUyPuB-74">
          <mxGeometry x="30" y="40" width="140" height="40" as="geometry" />
        </mxCell>
        <mxCell id="zS4iTFZCfX0krXfUyPuB-76" value="go_server" style="rounded=1;whiteSpace=wrap;html=1;labelBackgroundColor=none;fillColor=#FAE5C7;strokeColor=#0F8B8D;fontColor=#143642;" vertex="1" parent="zS4iTFZCfX0krXfUyPuB-74">
          <mxGeometry x="30" y="95" width="140" height="40" as="geometry" />
        </mxCell>
        <mxCell id="zS4iTFZCfX0krXfUyPuB-77" value="&lt;font style=&quot;font-size: 29px;&quot;&gt;......&lt;/font&gt;" style="text;html=1;align=center;verticalAlign=middle;resizable=0;points=[];autosize=1;strokeColor=none;fillColor=none;fontColor=#143642;" vertex="1" parent="zS4iTFZCfX0krXfUyPuB-74">
          <mxGeometry x="60" y="135" width="70" height="50" as="geometry" />
        </mxCell>
      </root>
    </mxGraphModel>
  </diagram>
</mxfile>
